<?xml version="1.0" encoding="UTF-8" standalone="no"?>
<!-- Created with Inkscape (http://www.inkscape.org/) -->

<svg
   width="120.91458mm"
   height="218.01666mm"
   viewBox="0 0 120.91458 218.01666"
   version="1.1"
   id="svg1"
   xml:space="preserve"
   inkscape:version="1.4 (86a8ad7, 2024-10-11)"
   sodipodi:docname="sweden.svg"
   xmlns:inkscape="http://www.inkscape.org/namespaces/inkscape"
   xmlns:sodipodi="http://sodipodi.sourceforge.net/DTD/sodipodi-0.dtd"
   xmlns="http://www.w3.org/2000/svg"
   xmlns:svg="http://www.w3.org/2000/svg"><sodipodi:namedview
     id="namedview1"
     pagecolor="#ffffff"
     bordercolor="#000000"
     borderopacity="0.25"
     inkscape:showpageshadow="2"
     inkscape:pageopacity="0.0"
     inkscape:pagecheckerboard="0"
     inkscape:deskcolor="#d1d1d1"
     inkscape:document-units="mm"
     inkscape:zoom="0.71891836"
     inkscape:cx="68.853437"
     inkscape:cy="369.3048"
     inkscape:window-width="1920"
     inkscape:window-height="1009"
     inkscape:window-x="-8"
     inkscape:window-y="-8"
     inkscape:window-maximized="1"
     inkscape:current-layer="svg1" /><defs
     id="defs1" />
     <path
     id="path5"
     style="fill:#000000;stroke-width:0.264583"
     d="M 113.72134 221.55404 L 112.52503 223.30225 L 112.80099 225.78633 L 109.67301 232.96264 L 109.85698 236.64304 L 110.8688 238.29927 L 112.709 230.66252 L 113.26091 227.90248 L 114.36523 221.82999 L 113.72134 221.55404 z M 105.62468 222.47388 L 94.675477 223.85415 L 92.007423 225.4184 L 78.298183 226.70618 L 74.894256 229.46673 L 79.034572 233.42308 L 78.574135 235.7232 L 77.654294 235.53923 L 77.286358 237.37943 L 78.02223 239.03514 L 76.182033 238.39125 L 80.322348 246.21196 L 81.610642 247.1318 L 79.402508 249.24795 L 79.954412 251.45609 L 81.518658 250.90418 L 85.199053 251.3641 L 89.891273 250.62823 L 91.363535 248.05216 L 90.25921 243.91184 L 93.755637 241.79569 L 93.571669 239.9555 L 101.02393 239.67954 L 103.41655 239.67954 L 103.6925 234.4349 L 106.17658 229.83467 L 106.36055 227.44256 L 106.72849 226.33824 L 105.07226 224.22209 L 105.62468 222.47388 z "
     transform="translate(-42.326219,-45.185989)"
     inkscape:label="SE4" />
     
     <path
     id="path3"
     style="opacity:1;fill:#000000;stroke-width:0.264583"
     d="m 71.857629,156.78061 -0.09198,6.0725 4.140316,3.95635 0.920357,2.48408 -1.472261,3.12849 -3.035991,0.18397 3.035991,7.17631 -1.19631,0.18397 0.920358,6.07249 -4.048332,1.8402 v 3.86436 l -1.748214,-0.91984 -0.643888,1.56425 1.011824,2.20813 0.459921,4.87619 -2.760039,2.20814 -0.45992,-2.39211 H 65.4172 l 0.920357,4.96818 -0.368453,4.69273 2.576587,2.57607 1.932182,-1.28829 -0.644405,8.5571 1.104325,1.10381 0.91984,3.68039 1.104326,-1.01234 0.183968,2.48461 1.564245,3.49591 3.311943,-2.94401 13.525273,-0.92036 2.11615,-1.19579 12.420942,-1.93218 0.55191,-3.86437 -1.1958,-1.84019 1.1958,-2.94401 -0.45993,-4.60075 -0.73587,-1.28778 2.02417,-0.092 -0.092,-1.93218 -3.95634,-1.10433 4.96817,-0.73587 -0.092,-1.19631 3.6804,-2.30012 0.18397,-2.85202 1.74821,2.20813 3.31246,-4.32428 -3.12849,-0.73639 -0.64389,-1.37976 -7.08484,-0.64441 4.87671,-1.37976 2.02416,0.64389 4.60024,-1.10432 0.73587,-2.48409 1.2883,-0.91984 -2.76004,-5.70456 -1.38028,-0.36794 -2.3921,-2.30012 -3.77238,2.85203 -2.94452,2.48408 2.39261,-3.95635 h 2.02417 l 0.91984,-2.30011 -0.27595,-1.28778 -2.11615,-0.64441 -2.94452,-0.18396 -0.36794,-1.37976 -5.61206,0.91984 -6.440948,-5.88853 -10.948686,-2.94401 z m 22.265825,15.54944 2.852539,1.56425 -2.852539,1.47174 -1.379761,-1.56425 z m 12.420946,22.26582 -2.48409,2.48409 -2.3921,-0.27595 0.36794,-0.64441 -2.116151,-0.73587 z m -18.769396,0.092 2.852539,1.74821 v 6.71639 l -2.392619,1.47226 -2.024166,2.48409 -1.471744,-1.01235 -1.840198,1.74822 -3.864364,1.01234 1.932182,-2.85254 -1.012341,-0.64389 0.736389,-4.87619 2.300118,-1.47226 1.840198,2.30012 -0.460437,-5.42861 1.932182,-0.82786 0.644405,0.91984 z m 8.648568,6.99234 v 4.60023 l -4.508252,8.09667 -1.287777,-0.64389 -0.644405,-2.11615 1.748214,-2.30012 1.196309,-4.96817 z m 31.190858,10.76471 -2.02416,0.0925 -3.58841,5.88802 -0.27596,1.01234 1.01183,1.38028 -0.91984,2.11615 1.10381,1.74769 0.6444,2.85254 0.91984,-2.85254 2.20814,-3.03599 2.20813,-1.8402 -1.93218,-1.01182 -0.18397,-3.03651 2.11615,-2.30011 z"
     transform="translate(-42.326219,-45.185989)"
     inkscape:label="SE3" />
     
     <path
     d="m 88.787345,97.527897 -2.11615,2.852023 -3.036507,-0.092 1.012342,4.60075 -0.552421,7.72821 -4.324284,10.12083 3.496427,1.01234 0.735873,3.31246 -0.919841,2.944 -7.452775,-0.45992 -4.048332,5.70457 -0.827856,6.6244 1.287776,2.48408 -1.655712,2.20814 0.183968,4.2323 1.37976,2.85254 -0.09198,2.30011 11.225155,9.01651 11.408606,3.12849 6.072496,5.70404 5.98051,-0.82785 -0.91984,-1.19579 -0.27595,-10.30532 0.91984,0.46044 1.47226,-1.01234 -0.91984,-2.20814 -0.64441,-7.54476 -1.1038,-0.73587 v -1.01182 h 3.21995 l -1.19579,-6.80889 1.65571,2.11615 4.14084,-0.82786 -1.10433,-2.02416 1.65623,-3.77238 0.73587,1.10381 2.30012,-0.73588 v -3.68039 l 2.57659,-0.18397 0.45992,-2.57607 4.2323,-3.12849 0.91984,-4.60024 -2.11615,-1.28777 -4.2323,1.47174 0.092,-2.3921 -3.40392,-0.092 -1.2883,-4.32429 -8.64856,-5.79654 v -3.77238 l -0.73639,-1.28778 -1.8402,-0.18448 -10.21281,-7.452263 z m 2.668055,42.691453 1.196309,3.03599 -1.380278,-0.092 0.183969,2.76056 -3.128492,-4.96869 z"
     style="opacity:1;stroke-width:0.264583"
     id="path10"
     transform="translate(-42.326219,-45.185989)"
     inkscape:label="SE2" />
     
     <path
     d="m 112.52491,55.940771 -3.21995,0.275953 1.56424,3.403926 -1.65623,3.77238 1.56373,0.920357 -1.37976,2.300118 -3.22048,-1.196309 -5.24412,-0.643889 -1.104325,0.827857 0.920355,2.11615 -0.36845,3.864363 -1.103809,1.19631 -3.680396,-0.551905 -2.11615,2.11615 -1.104325,5.520077 -0.91984,-0.09198 -0.643889,0.920357 1.655713,3.311943 -0.183968,3.772379 -4.416268,7.176823 1.012341,2.300118 3.680396,1.195793 10.396785,7.728718 1.74769,0.18397 1.56425,1.47226 -0.18397,3.58842 8.64857,6.25646 1.01234,3.95635 h 3.21996 l -0.092,2.02417 3.86437,-1.47227 2.30012,1.56425 2.94452,-5.06067 -3.22048,-3.12798 -0.27595,-2.57607 1.65623,-1.47226 -0.45992,-4.78472 -0.92036,-0.64389 4.87671,-3.12797 -1.19631,-1.01234 0.73639,-1.1958 v -1.564239 l 1.28778,0.275952 v -2.024166 l 1.10432,2.11615 2.57607,0.367936 0.45992,-1.748214 3.12849,0.460437 0.91984,-2.20865 -1.8402,-3.403927 -2.11615,-2.024166 0.82838,-7.360791 -4.41679,-4.968172 1.65623,-2.300118 -1.37976,-1.196309 -1.38028,0.45992 0.18397,-5.796545 -2.20813,-4.140316 -1.28829,1.288293 -2.85203,-4.048331 h -3.31246 z m -9.10848,38.919072 6.34845,5.060156 -1.47227,0.551901 0.73639,1.56425 4.32429,2.94452 -3.77238,0.45992 -0.18397,-2.3921 -1.65623,-0.36794 -0.27595,-1.65623 -2.94452,-0.27595 1.1963,-2.392616 -3.77237,-2.852023 z"
     style="opacity:1;stroke-width:0.264583"
     id="path8"
     transform="translate(-42.326219,-45.185989)"
     inkscape:label="SE1" /></svg>
